# xmcd CD database file
#
# Track frame offsets:
#	150
#	25017
#	43235
#	66072
#	91172
#	112375
#	130265
#	149070
#	168242
#	187522
#	206735
#	222737
#	237402
#
# Disc length: 3553 seconds
#
# Revision: 0
# Processed by: cddbd v1.4PL0 Copyright (c) Steve Scherf et al.
# Submitted via: NeoAudio 9.9.9
#
DISCID=c50ddf0d
DTITLE=Matt Taylor and Chain - Trouble in the wind/walls 2 mcgoo
DYEAR=1992
DGENRE=Blues
TTITLE0=Walls Fall Down
TTITLE1=New One
TTITLE2=Cold Comfort
TTITLE3=Hooker Does the Boogie
TTITLE4=Adelaide River
TTITLE5=Lock on my door
TTITLE6=Mighty Time
TTITLE7=Trouble in the Wind
TTITLE8=Wonderful Life
TTITLE9=Uncertain Blues
TTITLE10=Don't Call me a Drunkard
TTITLE11=Morris
TTITLE12=McGoo
EXTD=YEAR: 1992
EXTT0=
EXTT1=
EXTT2=
EXTT3=
EXTT4=
EXTT5=
EXTT6=
EXTT7=
EXTT8=
EXTT9=
EXTT10=
EXTT11=
EXTT12=
PLAYORDER=
